PathFileType	4	(X/Y/Z)	41_2_14_p1_0-404.trc
DataRate	CameraRate	NumFrames	NumMarkers	Units	OrigDataRate	OrigDataStartFrame	OrigNumFrames
59.0	59.0	6	27	m	59.0	253	405
Frame#	Time	RHip			RKnee			RAnkle			RBigToe			RSmallToe			RHeel			LHip			LKnee			LAnkle			LBigToe			LSmallToe			LHeel			Neck			Head			Nose			RShoulder			RElbow			RWrist			RThumb			RIndex			RPinky			LShoulder			LElbow			LWrist			LThumb			LIndex			LPinky			
		X1	Y1	Z1	X2	Y2	Z2	X3	Y3	Z3	X4	Y4	Z4	X5	Y5	Z5	X6	Y6	Z6	X7	Y7	Z7	X8	Y8	Z8	X9	Y9	Z9	X10	Y10	Z10	X11	Y11	Z11	X12	Y12	Z12	X13	Y13	Z13	X14	Y14	Z14	X15	Y15	Z15	X16	Y16	Z16	X17	Y17	Z17	X18	Y18	Z18	X19	Y19	Z19	X20	Y20	Z20	X21	Y21	Z21	X22	Y22	Z22	X23	Y23	Z23	X24	Y24	Z24	X25	Y25	Z25	X26	Y26	Z26	X27	Y27	Z27	
253	4.288135593220339	0.21938627448792908	0.5536880747214716	-0.12020658665780136	0.2557508722667426	0.5806192388379909	0.30143574045740346	0.3369559586525708	0.6833600122010234	0.7286824905062699	0.340090577860446	0.48723271536239293	0.728660947541005	0.39640777638623337	0.5328802157681553	0.7453215526364856	0.3359490777785871	0.7548824302943145	0.8058139019009605	0.055489220816261176	0.5249538528221882	-0.13284982354036495	0.06541043244980765	0.6262082524041042	0.30445530979051844	0.10830837401517661	0.7299579385171832	0.7459113355764194	0.14924442991911518	0.5676167802678278	0.7495037071206525	0.09544743732712543	0.5781819920962628	0.7602021643501766	0.13012231788031672	0.803990758040181	0.8074443868257811	0.254132247838459	0.3151417669564214	-0.5878683439213835	0.38955135522221795	0.21293141900037424	-0.809886040699188	0.3378861359297883	0.15773325699172946	-0.6395948833336209	0.3573627851542813	0.38657887107905564	-0.5093186408784098	0.33229820880489935	0.47916068072029994	-0.33207791232537204	0.4246777349364904	0.3421258031121473	-0.3073960982606877	0.4522876715381669	0.24803379938507733	-0.28229550970362954	0.47334732383633155	0.2470988234301714	-0.2678639883325489	0.4887554477514023	0.28282174641516317	-0.23421314255768275	0.08570776141430538	0.3046641646668069	-0.5896263549098527	-0.040576938832083444	0.46971037148060674	-0.3998256551764302	-0.028416113359646326	0.2719189052178551	-0.4117192807707204	-0.003304196924505739	0.1505432648332136	-0.40468599816472317	-0.02334014974847303	0.10790304952621654	-0.4193733868516469	-0.05141484956078772	0.08109189309853808	-0.4001806171026182
254	4.305084745762712	0.22001553541209154	0.5553057273317347	-0.1159095496457898	0.25561952418546874	0.5806268719677028	0.3013741918011542	0.3368647584790983	0.6832773726908588	0.728683779957361	0.3406516631774752	0.4903685460958563	0.7387673274097085	0.3925582456359295	0.5613775337548612	0.7644457525844686	0.33603264792381843	0.7550094458065272	0.8061625489623165	0.055100258037087485	0.5256138588445892	-0.13647188445717248	0.06646026594657847	0.6270969466687553	0.3136051347310736	0.10810384209421604	0.7298166534441667	0.7458921702892818	0.14918604279840653	0.5675915276738043	0.7494441472758345	0.0954472050061916	0.5781983854593982	0.7602433807572776	0.1300167023276124	0.8038915421898931	0.8075024707354027	0.25412989185717033	0.31531942513151545	-0.5877253261414764	0.386328607933333	0.2118533798480525	-0.8097831183799503	0.33752042759590484	0.15704424598875655	-0.6427938900750867	0.3573094777514046	0.3867144086604776	-0.5092982419735551	0.33268808875856776	0.480378800129104	-0.3282419711292559	0.4241917159700733	0.3428296914474459	-0.31081362118256295	0.4590036891755688	0.24746294853868653	-0.28794805312550653	0.48074354770658173	0.2650868749091222	-0.2672309525164814	0.49015794188132844	0.27145117425904786	-0.23836627627774407	0.08556231402311251	0.30478694896894964	-0.586423552774413	-0.03750198303548511	0.4722929797512538	-0.40250149995687445	-0.02203198731942773	0.28410346866140784	-0.41039594575779476	-0.002692295558336373	0.15035695849546338	-0.4040588311804061	-0.019852089979725797	0.1083928962151927	-0.41966947466025495	-0.05193751387600312	0.08225212459226408	-0.4026029954543485
255	4.322033898305085	0.21931500008848057	0.5536984972343694	-0.12037152249834775	0.2556584702256675	0.5802407840336237	0.3011968424854564	0.33689586435965874	0.6832608322243173	0.7286874081707434	0.34145167908765234	0.48948739807133224	0.7342911843763705	0.3965869332519443	0.5450506409572738	0.7514727841450607	0.33598496312221054	0.7549024015693061	0.8059533809608467	0.05461659585125318	0.5241382726562251	-0.14062948805087777	0.06645540981118675	0.6270715514919557	0.3135676150225066	0.10825126723731501	0.7302875463194226	0.7462677030107336	0.15034214748600214	0.5694415606626654	0.7552295443720772	0.09546800775061721	0.5781538869140619	0.7602112722884619	0.13119881042231005	0.8061965759712617	0.812841567884173	0.25009158790307917	0.3133339842452372	-0.5875405123882229	0.3860728326936623	0.21190987861877786	-0.8122875068708729	0.33760306298352954	0.15702080379127004	-0.6428247690584394	0.35747219170861616	0.3871390258745993	-0.5092587762892306	0.33268823209623405	0.47872371919428863	-0.32847881985000166	0.4359365073067199	0.3423889443713151	-0.31491454806404484	0.4538994605260389	0.23620542160645291	-0.284618864172104	0.4822059417657114	0.24306014705378187	-0.27058220658916515	0.4965159291530659	0.2740183588522406	-0.23150556230465344	0.08566789811437889	0.30479723492451527	-0.586421088742637	-0.0373702073022374	0.4712843630960897	-0.4057846148147148	-0.0219529152710255	0.28391376984953554	-0.4102385732936516	-0.0029141317804360065	0.15017359261223762	-0.4041275783164226	-0.019541685920911794	0.1078889630827789	-0.4164276721207235	-0.04981263570948212	0.09094119132580365	-0.3949828935471054
256	4.338983050847458	0.220060691377472	0.5549341603166437	-0.11603728256465265	0.2556952097689425	0.5806089143133876	0.3015548343868202	0.3369117319485621	0.6834709766147236	0.7287452201458599	0.340771930596607	0.49002096784254195	0.7385195716882548	0.39583530782929816	0.5457193792836592	0.7558813429165078	0.332155765046443	0.7727139198016415	0.8151455105345594	0.051993140178024616	0.5131512761726004	-0.13920390129264515	0.06563233893621748	0.6252233128853167	0.3082052009175251	0.10820948100200323	0.7295772653345615	0.7456657183738286	0.14937823809519682	0.5671800248905801	0.749209365498801	0.0955090919207232	0.5780875464189246	0.7601370329809258	0.13015440779571102	0.8036515493346894	0.807221436130462	0.24982230244408513	0.3138066972399398	-0.5909120709490708	0.38607177546511856	0.21190850136048284	-0.8123398380141353	0.33760973621859136	0.15697980241980047	-0.6428727553916012	0.3574380162376962	0.38696387617685235	-0.5093346001666432	0.3298092595263348	0.4931009670076564	-0.32950353069518773	0.4359897647801609	0.35279884143062074	-0.3168656843839501	0.45407706353547583	0.23678933235127195	-0.2848600409353368	0.48755518885184107	0.25407660052800807	-0.272591629719658	0.4972408129435742	0.2745691278621268	-0.23429628213275383	0.0856939306119366	0.304933983882665	-0.5863996508058099	-0.034113631030923394	0.48388050873504856	-0.40037122970510625	-0.02206660364997442	0.2837790640375309	-0.40689521830761866	-0.002487807788406423	0.1497790225757073	-0.40379350329693126	-0.013394096973975526	0.11678804625331277	-0.41004713334833254	-0.04397031275923235	0.10118206026483069	-0.38864593509952605
257	4.3559322033898304	0.21931699326603873	0.5537315787037516	-0.12027113283324148	0.2612780711228225	0.594678497493019	0.3151575023239645	0.3368779336585532	0.683304882518035	0.7286816655595102	0.3403604933306834	0.4914866574063064	0.7352815659038134	0.3933571187005387	0.560811937455704	0.7598928886186215	0.3320269276504691	0.7724550021278631	0.8148877239979084	0.05194576680054383	0.5129194464507536	-0.13943040735113524	0.06648122201801233	0.6272916307957321	0.31367493544105796	0.10821825083426845	0.7300330206772647	0.7460872774559615	0.1504054736730904	0.5692660381844201	0.7551093011285926	0.09549764426082531	0.5780922313046416	0.760154822191378	0.13118089390484244	0.8059166473907934	0.8126576481674892	0.2570303346387463	0.3037492688032361	-0.5921341144475923	0.3861043540952375	0.2119537518889695	-0.8123551352666478	0.34126822546662167	0.15782399534451627	-0.6430417285384208	0.35747530659122256	0.3869913487013479	-0.5093815094790275	0.32960386500376204	0.4932411111049691	-0.32591769075402216	0.4351139143822817	0.35145444037346624	-0.32112334959495725	0.4543079479611103	0.2366195962889674	-0.28503953097713214	0.4899068377772144	0.2411891381434279	-0.2717389003136953	0.4966097163017903	0.2731058212324551	-0.24506688265058454	0.08583773082725848	0.3046479833185765	-0.5864241868868753	-0.03429679550074684	0.48371732283575325	-0.3995946552678723	-0.022063759770763296	0.2838556317473066	-0.40681302709160067	-0.002070658094174739	0.14892186135323354	-0.4000457662425011	-0.013274254842045502	0.11683300954783313	-0.40982487060934936	-0.04383414387910375	0.1017620370232188	-0.390962826605427
258	4.372881355932203	0.2193323872581317	0.5538203718724579	-0.1202190654913163	0.2566162308968381	0.5823691314702775	0.3064810328221136	0.33679722763013425	0.6833093455283735	0.7287749673024752	0.3393781744843556	0.4884991657054952	0.733308843429818	0.3911457314750104	0.5328144931660574	0.7494817698452488	0.3326140701957955	0.7718588556754047	0.8190365879502189	0.05137552143780852	0.511522901036667	-0.14327025330859947	0.06642905729107337	0.6272671815581253	0.31372188497246967	0.10815451309843092	0.7296483096398257	0.7457617074325984	0.15030179932958507	0.5695521376797117	0.7552416395096698	0.09505881137939706	0.5795934617600641	0.7565540253883732	0.13115712098159377	0.8056570855049092	0.8124971819806223	0.25709290255524	0.3038300980546671	-0.5921197044246259	0.3887894275223946	0.20128403148843774	-0.8125512059054912	0.3413258021420775	0.15788048421479936	-0.6430521154215785	0.35754922883435497	0.3872864374844512	-0.5093563410639242	0.32666044978712383	0.5072661853329923	-0.3272608666894728	0.4350241048746074	0.3519796159713424	-0.3210617696787895	0.467462187374718	0.25825821638341845	-0.2863919488614678	0.4913900837335824	0.2637409311101453	-0.27704640583810397	0.4963463899376408	0.2721956505457918	-0.24540338564556374	0.08631822330337965	0.3051773160539438	-0.582767659417402	-0.030487235939641418	0.48840246300953	-0.39524286725693636	-0.021296242629336364	0.2845930600391949	-0.4070106487290803	0.001404679915382505	0.14016655597452216	-0.4016865354105758	-0.005629667707996715	0.10870474998775903	-0.407420079147508	-0.04555210066632127	0.08961253314941944	-0.3896457491447311
